<svg width="56" height="56" viewBox="0 0 42 37" fill="none" xmlns="http://www.w3.org/2000/svg">
<path d="M42 18.1609V32.286C42 33.3563 41.5083 34.3828 40.6332 35.1397C39.758 35.8965 38.571 36.3217 37.3333 36.3217H4.66667C3.42899 36.3217 2.242 35.8965 1.36683 35.1397C0.491665 34.3828 0 33.3563 0 32.286V18.1609H42ZM30.3333 0C30.9522 0 31.5457 0.212597 31.9832 0.591021C32.4208 0.969446 32.6667 1.4827 32.6667 2.01787V4.03575H37.3333C38.571 4.03575 39.758 4.46094 40.6332 5.21779C41.5083 5.97464 42 7.00114 42 8.07149V14.1251H0V8.07149C0 7.00114 0.491665 5.97464 1.36683 5.21779C2.242 4.46094 3.42899 4.03575 4.66667 4.03575H9.33333V2.01787C9.33333 1.4827 9.57917 0.969446 10.0168 0.591021C10.4543 0.212597 11.0478 0 11.6667 0C12.2855 0 12.879 0.212597 13.3166 0.591021C13.7542 0.969446 14 1.4827 14 2.01787V4.03575H28V2.01787C28 1.4827 28.2458 0.969446 28.6834 0.591021C29.121 0.212597 29.7145 0 30.3333 0Z" fill="black" fill-opacity="0.2"/>
</svg>
