<svg xmlns="http://www.w3.org/2000/svg" xmlns:xlink="http://www.w3.org/1999/xlink" width="500" zoomAndPan="magnify" viewBox="0 0 375 374.999991" height="500" preserveAspectRatio="xMidYMid meet" version="1.0"><path fill="#8c52ff" d="M 7.164062 128.242188 C 7.722656 111.726562 11.910156 95.082031 20.574219 80.914062 C 28.234375 68.394531 44.703125 56.742188 58.402344 51.613281 C 78.285156 44.164062 96.613281 51.789062 104.511719 71.355469 C 109.765625 84.367188 112.355469 99.214844 114.636719 113.007812 C 116.566406 124.691406 117.753906 137.09375 113.195312 148.019531 C 108.554688 159.148438 98.632812 167.113281 88.648438 173.875 C 86.839844 175.097656 103.546875 203.78125 105.238281 206.550781 C 111.621094 216.984375 118.820312 226.917969 126.742188 236.234375 C 134.855469 245.773438 143.726562 254.667969 153.253906 262.789062 C 160.75 269.179688 168.609375 278.5 178.652344 280.738281 C 184.601562 282.0625 189.320312 279.121094 193.273438 274.96875 C 204.84375 262.808594 216.675781 259.191406 233.238281 263.066406 C 244.363281 265.667969 254.738281 270.554688 265 275.449219 C 274.3125 279.886719 285.214844 283.363281 292.953125 290.375 C 306.589844 302.738281 302.234375 323.386719 293.925781 337.417969 C 285.496094 351.65625 271.484375 362.398438 256.136719 367.789062 C 235.722656 374.957031 212.988281 373.65625 192.324219 367.226562 C 171.660156 360.796875 152.832031 349.507812 135.230469 336.914062 C 115.496094 322.796875 97.0625 306.8125 80.511719 289.058594 C 52.195312 258.683594 25.4375 219.21875 13.542969 177.238281 C 8.988281 161.152344 6.613281 144.699219 7.164062 128.242188 Z M 181.253906 30.195312 C 173.285156 29.519531 166.507812 23.988281 166.507812 15.449219 C 166.507812 7.964844 173.308594 0.03125 181.253906 0.707031 C 195.089844 1.875 208.847656 4.5 222.148438 8.488281 C 271.003906 23.132812 313.71875 55.347656 338.953125 100 C 359.367188 136.136719 368.511719 179.757812 363.523438 221.070312 C 362.566406 229.011719 357.542969 235.8125 348.78125 235.8125 C 341.496094 235.8125 333.078125 228.988281 334.035156 221.070312 C 334.746094 215.183594 335.140625 209.269531 335.25 203.34375 C 335.335938 198.792969 335.257812 194.234375 335.019531 189.6875 C 334.890625 187.207031 334.714844 184.730469 334.488281 182.257812 C 334.347656 180.6875 334.183594 179.117188 334.007812 177.550781 C 333.425781 172.359375 334.222656 178.851562 333.792969 175.757812 C 326.929688 126.6875 299.316406 82.210938 257.109375 56.132812 C 240.664062 45.976562 226.796875 40.136719 208.21875 35.199219 C 201.867188 33.511719 195.429688 32.125 188.933594 31.09375 C 186.800781 30.753906 184.5 30.527344 188.308594 30.957031 C 187.265625 30.839844 186.230469 30.691406 185.1875 30.578125 C 183.878906 30.433594 182.566406 30.304688 181.253906 30.195312 Z M 175.21875 86.902344 C 176.042969 86.964844 176.863281 87.046875 177.6875 87.121094 C 178.238281 87.171875 178.785156 87.257812 179.335938 87.300781 C 182.242188 87.535156 176.019531 86.742188 178.4375 87.171875 C 182.625 87.910156 186.792969 88.589844 190.933594 89.589844 C 196.246094 90.867188 201.480469 92.445312 206.613281 94.3125 C 211.707031 96.167969 215.980469 98.046875 222.265625 101.503906 C 251.609375 117.632812 271.695312 146.066406 277.585938 179.703125 C 278.726562 186.222656 279.191406 194.175781 279.03125 201.761719 C 278.972656 204.539062 278.832031 207.3125 278.597656 210.078125 C 278.492188 211.3125 278.351562 212.542969 278.226562 213.773438 C 277.871094 217.277344 278.496094 211.960938 278.3125 213.25 C 277.1875 221.125 280.242188 229.089844 288.609375 231.390625 C 295.523438 233.289062 305.617188 229.027344 306.746094 221.09375 C 311.636719 186.800781 305.390625 151.089844 286.308594 121.78125 C 267.191406 92.417969 237.464844 71.859375 203.871094 62.476562 C 194.542969 59.871094 184.875 58.140625 175.21875 57.414062 C 167.265625 56.8125 160.472656 64.617188 160.472656 72.15625 C 160.472656 80.636719 167.246094 86.300781 175.21875 86.902344 Z M 170.46875 141.433594 C 173.816406 141.804688 167.554688 140.832031 169.5625 141.308594 C 170.753906 141.59375 171.992188 141.730469 173.195312 141.984375 C 176.777344 142.742188 180.3125 143.75 183.761719 144.984375 C 186.3125 145.898438 190.410156 147.765625 194.695312 150.359375 C 199.273438 153.128906 202.847656 156 206.6875 159.976562 C 215.191406 168.792969 220.296875 179.886719 222.496094 191.859375 C 222.976562 194.480469 222.984375 194.8125 223.164062 198.070312 C 223.28125 200.207031 223.316406 202.347656 223.257812 204.484375 C 223.210938 206.351562 223.035156 208.199219 222.914062 210.0625 C 222.652344 214.113281 223.378906 207.28125 222.914062 210.210938 C 221.667969 218.070312 224.929688 226.074219 233.210938 228.351562 C 240.222656 230.277344 250.097656 225.964844 251.351562 218.054688 C 255.78125 190.101562 248.148438 161.683594 228.902344 140.578125 C 213.839844 124.058594 192.46875 114.394531 170.46875 111.945312 C 162.542969 111.0625 155.722656 119.351562 155.722656 126.691406 C 155.722656 135.390625 162.519531 140.546875 170.46875 141.433594 Z M 170.46875 141.433594 " fill-opacity="1" fill-rule="nonzero"/></svg>