<svg xmlns="http://www.w3.org/2000/svg" xmlns:xlink="http://www.w3.org/1999/xlink" width="500" zoomAndPan="magnify" viewBox="0 0 375 374.999991" height="500" preserveAspectRatio="xMidYMid meet" version="1.0"><path fill="#8c52ff" d="M 374.304688 351.503906 L 350.34375 281.414062 C 351.539062 279.3125 352.679688 277.179688 353.757812 275.011719 C 354.835938 272.84375 355.851562 270.648438 356.804688 268.425781 C 357.761719 266.203125 358.652344 263.953125 359.484375 261.679688 C 360.3125 259.40625 361.078125 257.113281 361.777344 254.796875 C 362.480469 252.480469 363.113281 250.144531 363.683594 247.792969 C 364.253906 245.441406 364.757812 243.078125 365.199219 240.695312 C 365.636719 238.316406 366.007812 235.925781 366.308594 233.523438 C 366.613281 231.125 366.851562 228.71875 367.019531 226.304688 C 367.191406 223.890625 367.292969 221.472656 367.324219 219.050781 C 367.359375 216.632812 367.328125 214.214844 367.226562 211.796875 C 367.125 209.378906 366.957031 206.964844 366.71875 204.554688 C 366.484375 202.148438 366.179688 199.75 365.808594 197.355469 C 365.4375 194.964844 365 192.585938 364.496094 190.21875 C 363.992188 187.851562 363.421875 185.5 362.789062 183.167969 C 362.152344 180.832031 361.453125 178.515625 360.6875 176.21875 C 359.921875 173.921875 359.09375 171.652344 358.203125 169.402344 C 357.308594 167.152344 356.355469 164.929688 355.339844 162.734375 C 354.324219 160.535156 353.246094 158.371094 352.109375 156.234375 C 350.96875 154.097656 349.773438 151.996094 348.519531 149.925781 C 347.261719 147.859375 345.949219 145.828125 344.582031 143.832031 C 343.210938 141.835938 341.789062 139.878906 340.308594 137.964844 C 338.832031 136.046875 337.300781 134.175781 335.71875 132.34375 C 334.132812 130.515625 332.5 128.730469 330.816406 126.992188 C 329.132812 125.253906 327.402344 123.5625 325.625 121.921875 C 323.847656 120.28125 322.023438 118.6875 320.15625 117.148438 C 318.292969 115.609375 316.382812 114.121094 314.433594 112.691406 C 312.484375 111.257812 310.492188 109.878906 308.46875 108.558594 C 306.441406 107.234375 304.378906 105.972656 302.277344 104.765625 C 300.179688 103.558594 298.050781 102.414062 295.890625 101.324219 C 293.726562 100.238281 291.535156 99.210938 289.316406 98.25 C 287.097656 97.285156 284.851562 96.382812 282.582031 95.542969 C 280.3125 94.703125 278.019531 93.929688 275.707031 93.21875 C 276.984375 96.027344 278.175781 98.871094 279.277344 101.753906 C 280.378906 104.636719 281.394531 107.550781 282.316406 110.496094 C 283.238281 113.4375 284.070312 116.410156 284.808594 119.402344 C 285.550781 122.398438 286.199219 125.414062 286.75 128.449219 C 287.304688 131.484375 287.765625 134.535156 288.132812 137.597656 C 288.5 140.664062 288.769531 143.734375 288.945312 146.816406 C 289.125 149.894531 289.207031 152.980469 289.191406 156.066406 C 289.179688 159.148438 289.070312 162.234375 288.867188 165.3125 C 288.664062 168.390625 288.367188 171.460938 287.976562 174.519531 C 287.582031 177.582031 287.097656 180.625 286.519531 183.65625 C 285.9375 186.6875 285.265625 189.699219 284.5 192.6875 C 283.734375 195.675781 282.878906 198.640625 281.929688 201.574219 C 280.984375 204.511719 279.945312 207.417969 278.820312 210.289062 C 277.691406 213.160156 276.476562 215.996094 275.175781 218.792969 C 273.875 221.59375 272.488281 224.347656 271.019531 227.058594 C 269.546875 229.769531 267.992188 232.4375 266.359375 235.050781 C 264.722656 237.667969 263.007812 240.234375 261.214844 242.742188 C 259.421875 245.253906 257.554688 247.707031 255.609375 250.105469 C 253.664062 252.5 251.648438 254.832031 249.558594 257.105469 C 247.472656 259.375 245.316406 261.582031 243.089844 263.71875 C 240.867188 265.859375 238.578125 267.925781 236.226562 269.925781 C 233.875 271.921875 231.464844 273.847656 228.996094 275.695312 C 226.523438 277.542969 224 279.316406 221.421875 281.007812 C 218.839844 282.703125 216.210938 284.316406 213.535156 285.847656 C 210.855469 287.378906 208.132812 288.828125 205.363281 290.191406 C 202.597656 291.554688 199.789062 292.832031 196.941406 294.023438 C 194.097656 295.214844 191.214844 296.316406 188.300781 297.328125 C 185.386719 298.34375 182.445312 299.265625 179.472656 300.097656 C 176.5 300.929688 173.507812 301.667969 170.492188 302.316406 C 167.472656 302.964844 164.441406 303.519531 161.386719 303.976562 C 158.335938 304.4375 155.273438 304.804688 152.203125 305.078125 C 149.128906 305.347656 146.050781 305.527344 142.964844 305.609375 C 145.398438 308.210938 147.9375 310.710938 150.578125 313.105469 C 153.222656 315.5 155.957031 317.785156 158.785156 319.953125 C 161.617188 322.121094 164.53125 324.171875 167.527344 326.101562 C 170.527344 328.027344 173.601562 329.832031 176.75 331.507812 C 179.894531 333.183594 183.105469 334.726562 186.378906 336.136719 C 189.65625 337.546875 192.980469 338.820312 196.363281 339.957031 C 199.742188 341.09375 203.160156 342.089844 206.625 342.945312 C 210.085938 343.796875 213.574219 344.507812 217.097656 345.074219 C 220.617188 345.640625 224.152344 346.0625 227.707031 346.335938 C 231.261719 346.613281 234.824219 346.742188 238.390625 346.722656 C 241.953125 346.703125 245.511719 346.539062 249.066406 346.226562 C 252.617188 345.914062 256.148438 345.457031 259.664062 344.851562 C 263.175781 344.25 266.660156 343.503906 270.113281 342.613281 C 273.566406 341.722656 276.976562 340.691406 280.34375 339.519531 C 283.710938 338.347656 287.023438 337.039062 290.285156 335.59375 C 293.542969 334.148438 296.738281 332.570312 299.867188 330.863281 L 368.164062 357.410156 C 368.582031 357.570312 369.011719 357.667969 369.457031 357.703125 C 369.902344 357.738281 370.34375 357.710938 370.78125 357.621094 C 371.21875 357.535156 371.632812 357.386719 372.027344 357.175781 C 372.421875 356.96875 372.78125 356.710938 373.105469 356.402344 C 373.425781 356.09375 373.699219 355.746094 373.921875 355.355469 C 374.144531 354.96875 374.308594 354.558594 374.414062 354.128906 C 374.519531 353.695312 374.5625 353.253906 374.542969 352.808594 C 374.527344 352.363281 374.445312 351.925781 374.304688 351.503906 Z M 374.304688 351.503906 " fill-opacity="1" fill-rule="nonzero"/><path fill="#8c52ff" d="M 268.472656 155.308594 C 268.464844 152.828125 268.382812 150.351562 268.230469 147.875 C 268.078125 145.398438 267.855469 142.929688 267.5625 140.464844 C 267.269531 138 266.902344 135.546875 266.46875 133.105469 C 266.035156 130.664062 265.527344 128.234375 264.953125 125.824219 C 264.378906 123.410156 263.738281 121.015625 263.023438 118.636719 C 262.3125 116.261719 261.53125 113.90625 260.683594 111.574219 C 259.835938 109.246094 258.921875 106.9375 257.941406 104.660156 C 256.960938 102.382812 255.917969 100.132812 254.808594 97.914062 C 253.699219 95.695312 252.523438 93.507812 251.289062 91.359375 C 250.054688 89.207031 248.757812 87.09375 247.402344 85.015625 C 246.042969 82.9375 244.628906 80.902344 243.15625 78.90625 C 241.679688 76.910156 240.152344 74.960938 238.566406 73.050781 C 236.980469 71.144531 235.339844 69.285156 233.644531 67.472656 C 231.953125 65.65625 230.210938 63.894531 228.414062 62.179688 C 226.621094 60.46875 224.777344 58.808594 222.886719 57.203125 C 220.996094 55.59375 219.0625 54.042969 217.082031 52.546875 C 215.105469 51.050781 213.085938 49.613281 211.023438 48.234375 C 208.960938 46.855469 206.859375 45.535156 204.722656 44.277344 C 202.585938 43.019531 200.414062 41.820312 198.207031 40.6875 C 196 39.554688 193.761719 38.484375 191.496094 37.476562 C 189.226562 36.472656 186.929688 35.535156 184.609375 34.660156 C 182.289062 33.789062 179.941406 32.980469 177.574219 32.242188 C 175.207031 31.503906 172.816406 30.835938 170.410156 30.234375 C 168.003906 29.632812 165.582031 29.101562 163.144531 28.640625 C 160.707031 28.175781 158.257812 27.785156 155.796875 27.464844 C 153.335938 27.144531 150.871094 26.894531 148.394531 26.714844 C 145.921875 26.535156 143.445312 26.425781 140.964844 26.390625 C 138.484375 26.355469 136.003906 26.386719 133.523438 26.496094 C 131.046875 26.601562 128.574219 26.777344 126.105469 27.027344 C 123.636719 27.273438 121.175781 27.59375 118.726562 27.980469 C 116.277344 28.371094 113.839844 28.832031 111.417969 29.359375 C 108.992188 29.890625 106.585938 30.488281 104.195312 31.15625 C 101.808594 31.824219 99.441406 32.5625 97.09375 33.367188 C 94.746094 34.171875 92.425781 35.042969 90.128906 35.980469 C 87.832031 36.917969 85.5625 37.917969 83.324219 38.988281 C 81.085938 40.054688 78.878906 41.1875 76.703125 42.382812 C 74.53125 43.578125 72.390625 44.835938 70.289062 46.152344 C 68.1875 47.46875 66.125 48.847656 64.101562 50.285156 C 62.082031 51.722656 60.101562 53.214844 58.164062 54.765625 C 56.226562 56.316406 54.335938 57.921875 52.492188 59.578125 C 50.648438 61.238281 48.851562 62.949219 47.105469 64.710938 C 45.359375 66.472656 43.667969 68.285156 42.023438 70.144531 C 40.382812 72.003906 38.796875 73.910156 37.265625 75.859375 C 35.730469 77.8125 34.257812 79.804688 32.839844 81.839844 C 31.421875 83.878906 30.0625 85.953125 28.765625 88.066406 C 27.464844 90.179688 26.230469 92.328125 25.054688 94.515625 C 23.878906 96.699219 22.769531 98.917969 21.722656 101.167969 C 20.675781 103.414062 19.691406 105.691406 18.777344 107.996094 C 17.859375 110.304688 17.011719 112.632812 16.230469 114.988281 C 15.445312 117.339844 14.730469 119.714844 14.085938 122.113281 C 13.441406 124.507812 12.863281 126.917969 12.355469 129.347656 C 11.851562 131.777344 11.414062 134.21875 11.046875 136.671875 C 10.679688 139.125 10.382812 141.585938 10.160156 144.058594 C 9.933594 146.527344 9.78125 149.003906 9.695312 151.480469 C 9.613281 153.960938 9.601562 156.441406 9.664062 158.921875 C 9.722656 161.402344 9.851562 163.878906 10.054688 166.351562 C 10.257812 168.824219 10.53125 171.289062 10.875 173.746094 C 11.21875 176.203125 11.632812 178.648438 12.117188 181.078125 C 12.601562 183.511719 13.15625 185.929688 13.78125 188.332031 C 14.402344 190.734375 15.09375 193.113281 15.855469 195.476562 C 16.617188 197.835938 17.445312 200.175781 18.339844 202.488281 C 19.234375 204.800781 20.195312 207.089844 21.21875 209.347656 C 22.246094 211.605469 23.335938 213.832031 24.492188 216.027344 C 25.644531 218.222656 26.863281 220.386719 28.140625 222.511719 L 19.878906 246.738281 L 6.605469 285.695312 C 6.460938 286.121094 6.382812 286.554688 6.363281 287 C 6.34375 287.445312 6.386719 287.886719 6.492188 288.320312 C 6.601562 288.753906 6.765625 289.164062 6.988281 289.550781 C 7.210938 289.9375 7.480469 290.285156 7.804688 290.59375 C 8.125 290.902344 8.484375 291.164062 8.878906 291.371094 C 9.273438 291.578125 9.691406 291.726562 10.128906 291.816406 C 10.5625 291.90625 11.003906 291.929688 11.449219 291.894531 C 11.894531 291.859375 12.324219 291.761719 12.742188 291.605469 L 50.742188 276.835938 L 74.269531 267.675781 C 82.355469 272.347656 90.847656 276.097656 99.742188 278.929688 C 108.640625 281.757812 117.738281 283.605469 127.035156 284.46875 C 130.984375 284.800781 135 285 139.046875 285 C 141.167969 285 143.289062 284.949219 145.40625 284.84375 C 147.527344 284.738281 149.640625 284.582031 151.75 284.375 C 153.863281 284.167969 155.964844 283.90625 158.0625 283.59375 C 160.160156 283.285156 162.25 282.921875 164.332031 282.507812 C 166.410156 282.09375 168.480469 281.628906 170.535156 281.109375 C 172.59375 280.59375 174.636719 280.027344 176.667969 279.414062 C 178.695312 278.796875 180.707031 278.128906 182.707031 277.414062 C 184.703125 276.699219 186.679688 275.933594 188.640625 275.121094 C 190.597656 274.308594 192.535156 273.449219 194.453125 272.542969 C 196.371094 271.632812 198.261719 270.679688 200.132812 269.679688 C 202.003906 268.675781 203.847656 267.632812 205.664062 266.539062 C 207.484375 265.449219 209.273438 264.3125 211.035156 263.132812 C 212.796875 261.953125 214.53125 260.730469 216.234375 259.464844 C 217.9375 258.199219 219.605469 256.894531 221.246094 255.546875 C 222.882812 254.203125 224.488281 252.816406 226.058594 251.390625 C 227.628906 249.964844 229.160156 248.5 230.660156 247 C 232.15625 245.496094 233.617188 243.960938 235.039062 242.386719 C 236.464844 240.8125 237.847656 239.207031 239.191406 237.566406 C 240.535156 235.925781 241.835938 234.25 243.097656 232.546875 C 244.359375 230.84375 245.578125 229.105469 246.753906 227.34375 C 247.929688 225.578125 249.0625 223.785156 250.148438 221.964844 C 251.238281 220.144531 252.28125 218.296875 253.277344 216.425781 C 254.273438 214.554688 255.226562 212.65625 256.128906 210.738281 C 257.03125 208.820312 257.890625 206.878906 258.699219 204.921875 C 259.507812 202.960938 260.265625 200.980469 260.976562 198.980469 C 261.6875 196.984375 262.351562 194.96875 262.964844 192.9375 C 263.574219 190.910156 264.136719 188.863281 264.648438 186.804688 C 265.160156 184.746094 265.621094 182.679688 266.03125 180.597656 C 266.441406 178.515625 266.800781 176.425781 267.109375 174.328125 C 267.414062 172.230469 267.671875 170.125 267.875 168.011719 C 268.078125 165.902344 268.230469 163.789062 268.332031 161.667969 C 268.429688 159.550781 268.476562 157.429688 268.472656 155.308594 Z M 155.308594 185.175781 C 155.308594 185.851562 155.242188 186.519531 155.113281 187.183594 C 154.980469 187.847656 154.785156 188.488281 154.527344 189.113281 C 154.269531 189.738281 153.953125 190.332031 153.574219 190.890625 C 153.199219 191.453125 152.773438 191.972656 152.296875 192.453125 C 151.820312 192.929688 151.300781 193.355469 150.738281 193.730469 C 150.175781 194.105469 149.582031 194.421875 148.960938 194.679688 C 148.335938 194.941406 147.691406 195.136719 147.027344 195.265625 C 146.367188 195.398438 145.699219 195.464844 145.023438 195.464844 L 79.480469 195.464844 C 78.8125 195.453125 78.152344 195.378906 77.496094 195.238281 C 76.84375 195.097656 76.207031 194.898438 75.59375 194.632812 C 74.980469 194.371094 74.394531 194.050781 73.84375 193.671875 C 73.292969 193.296875 72.78125 192.871094 72.3125 192.394531 C 71.84375 191.917969 71.425781 191.398438 71.058594 190.839844 C 70.6875 190.28125 70.378906 189.695312 70.125 189.074219 C 69.871094 188.457031 69.679688 187.820312 69.550781 187.164062 C 69.421875 186.507812 69.359375 185.84375 69.359375 185.175781 L 69.359375 184.179688 C 69.359375 183.507812 69.425781 182.839844 69.554688 182.175781 C 69.6875 181.515625 69.882812 180.871094 70.140625 180.25 C 70.402344 179.625 70.71875 179.035156 71.09375 178.472656 C 71.46875 177.914062 71.894531 177.394531 72.375 176.917969 C 72.851562 176.441406 73.371094 176.015625 73.933594 175.644531 C 74.496094 175.269531 75.085938 174.953125 75.710938 174.699219 C 76.335938 174.441406 76.980469 174.25 77.640625 174.117188 C 78.304688 173.988281 78.972656 173.925781 79.644531 173.925781 L 145.023438 173.925781 C 145.695312 173.925781 146.367188 173.988281 147.027344 174.117188 C 147.691406 174.25 148.332031 174.441406 148.957031 174.699219 C 149.582031 174.953125 150.171875 175.269531 150.734375 175.644531 C 151.296875 176.015625 151.816406 176.441406 152.292969 176.917969 C 152.773438 177.394531 153.199219 177.914062 153.574219 178.472656 C 153.949219 179.035156 154.265625 179.625 154.527344 180.25 C 154.785156 180.871094 154.980469 181.515625 155.113281 182.175781 C 155.242188 182.839844 155.308594 183.507812 155.308594 184.179688 Z M 204.824219 139.945312 C 204.824219 140.621094 204.757812 141.289062 204.625 141.953125 C 204.492188 142.613281 204.296875 143.257812 204.039062 143.882812 C 203.78125 144.503906 203.464844 145.097656 203.089844 145.660156 C 202.714844 146.222656 202.289062 146.742188 201.808594 147.21875 C 201.332031 147.695312 200.8125 148.125 200.25 148.5 C 199.6875 148.875 199.097656 149.191406 198.472656 149.449219 C 197.847656 149.707031 197.203125 149.902344 196.542969 150.035156 C 195.878906 150.167969 195.210938 150.230469 194.535156 150.230469 L 77.324219 150.230469 C 76.648438 150.230469 75.976562 150.167969 75.316406 150.035156 C 74.652344 149.902344 74.011719 149.707031 73.386719 149.449219 C 72.761719 149.191406 72.167969 148.875 71.609375 148.5 C 71.046875 148.125 70.527344 147.695312 70.046875 147.21875 C 69.570312 146.742188 69.144531 146.222656 68.769531 145.660156 C 68.394531 145.097656 68.078125 144.503906 67.820312 143.882812 C 67.558594 143.257812 67.363281 142.613281 67.234375 141.953125 C 67.101562 141.289062 67.035156 140.621094 67.035156 139.945312 L 67.035156 138.980469 C 67.039062 138.308594 67.109375 137.644531 67.246094 136.984375 C 67.378906 136.324219 67.578125 135.6875 67.835938 135.066406 C 68.097656 134.445312 68.417969 133.855469 68.792969 133.296875 C 69.167969 132.742188 69.59375 132.226562 70.070312 131.75 C 70.550781 131.277344 71.066406 130.851562 71.628906 130.480469 C 72.1875 130.109375 72.78125 129.792969 73.402344 129.539062 C 74.023438 129.28125 74.664062 129.085938 75.324219 128.957031 C 75.984375 128.828125 76.648438 128.761719 77.324219 128.761719 L 194.535156 128.761719 C 195.210938 128.761719 195.878906 128.828125 196.542969 128.957031 C 197.203125 129.089844 197.847656 129.285156 198.472656 129.542969 C 199.097656 129.800781 199.6875 130.121094 200.25 130.496094 C 200.8125 130.871094 201.332031 131.296875 201.808594 131.773438 C 202.289062 132.25 202.714844 132.773438 203.089844 133.332031 C 203.464844 133.894531 203.78125 134.488281 204.039062 135.113281 C 204.296875 135.734375 204.492188 136.378906 204.625 137.042969 C 204.757812 137.703125 204.824219 138.375 204.824219 139.046875 Z M 204.824219 139.945312 " fill-opacity="1" fill-rule="nonzero"/></svg>