<svg xmlns="http://www.w3.org/2000/svg" xmlns:xlink="http://www.w3.org/1999/xlink" width="500" zoomAndPan="magnify" viewBox="0 0 375 374.999991" height="500" preserveAspectRatio="xMidYMid meet" version="1.0"><defs><clipPath id="a2079017c6"><path d="M 11.285156 169 L 288.304688 169 L 288.304688 375 L 11.285156 375 Z M 11.285156 169 " clip-rule="nonzero"/></clipPath><clipPath id="56b9dbf30b"><path d="M 194.535156 135.035156 L 363.265625 135.035156 L 363.265625 303.59375 L 194.535156 303.59375 Z M 194.535156 135.035156 " clip-rule="nonzero"/></clipPath><clipPath id="048f0e5b22"><path d="M 217.914062 158.242188 L 341 158.242188 L 341 281 L 217.914062 281 Z M 217.914062 158.242188 " clip-rule="nonzero"/></clipPath></defs><path fill="#5a35a2" d="M 230.429688 80.085938 C 230.429688 35.941406 194.511719 0.0234375 150.367188 0.0234375 C 106.222656 0.0234375 70.304688 35.941406 70.304688 80.085938 C 70.304688 124.109375 106.222656 160.027344 150.367188 160.027344 C 194.511719 160.027344 230.429688 124.109375 230.429688 80.085938 Z M 230.429688 80.085938 " fill-opacity="1" fill-rule="nonzero"/><g clip-path="url(#a2079017c6)"><path fill="#5a35a2" d="M 11.285156 308.421875 L 11.285156 332.609375 C 11.285156 355.953125 30.273438 374.9375 53.613281 374.9375 L 247.117188 374.9375 C 270.460938 374.9375 289.449219 355.953125 289.449219 332.609375 L 289.449219 308.421875 C 289.449219 231.746094 227.042969 169.339844 150.367188 169.339844 C 73.691406 169.339844 11.285156 231.746094 11.285156 308.421875 Z M 11.285156 308.421875 " fill-opacity="1" fill-rule="nonzero"/></g><g clip-path="url(#56b9dbf30b)"><path fill="#ffffff" d="M 363.527344 219.53125 C 363.527344 266.195312 325.695312 304.027344 279.03125 304.027344 C 232.367188 304.027344 194.535156 266.195312 194.535156 219.53125 C 194.535156 172.867188 232.367188 135.035156 279.03125 135.035156 C 325.695312 135.035156 363.527344 172.867188 363.527344 219.53125 Z M 363.527344 219.53125 " fill-opacity="1" fill-rule="nonzero"/></g><g clip-path="url(#048f0e5b22)"><path fill="#8c52ff" d="M 279.125 158.242188 C 312.859375 158.242188 340.332031 185.71875 340.332031 219.453125 C 340.332031 253.1875 312.859375 280.660156 279.125 280.660156 C 245.390625 280.660156 217.914062 253.1875 217.914062 219.453125 C 217.914062 185.71875 245.390625 158.242188 279.125 158.242188 Z M 279.125 158.242188 " fill-opacity="1" fill-rule="nonzero"/></g><path fill="#ffffff" d="M 290.4375 219.453125 L 311.847656 198.039062 C 315.082031 194.808594 315.082031 189.757812 311.847656 186.523438 C 308.617188 183.292969 303.566406 183.292969 300.335938 186.523438 L 279.125 207.9375 L 257.507812 186.523438 C 254.277344 183.292969 249.226562 183.292969 245.996094 186.523438 C 242.761719 189.757812 242.761719 194.808594 245.996094 198.039062 L 267.40625 219.453125 L 246.195312 240.867188 C 242.964844 244.097656 242.964844 249.148438 246.195312 252.378906 C 247.8125 253.996094 249.832031 254.804688 251.851562 254.804688 C 253.875 254.804688 255.894531 253.996094 257.507812 252.378906 L 278.921875 230.96875 L 300.335938 252.378906 C 301.949219 253.996094 303.972656 254.804688 305.992188 254.804688 C 308.011719 254.804688 310.03125 253.996094 311.648438 252.378906 C 314.878906 249.148438 314.878906 244.097656 311.648438 240.867188 Z M 290.4375 219.453125 " fill-opacity="1" fill-rule="nonzero"/></svg>