<svg width="42" height="42" viewBox="0 0 42 42" fill="none" xmlns="http://www.w3.org/2000/svg">
<path d="M4.66667 42C3.38333 42 2.28511 41.5435 1.372 40.6303C0.458889 39.7172 0.00155556 38.6182 0 37.3333V2.33334C0 1.67223 0.224 1.11845 0.672 0.672008C1.12 0.225564 1.67378 0.0015636 2.33333 8.04597e-06C2.99289 -0.00154751 3.54744 0.222453 3.997 0.672008C4.44656 1.12156 4.66978 1.67534 4.66667 2.33334V37.3333H39.6667C40.3278 37.3333 40.8823 37.5573 41.3303 38.0053C41.7783 38.4533 42.0016 39.0071 42 39.6667C41.9984 40.3262 41.7744 40.8808 41.328 41.3303C40.8816 41.7799 40.3278 42.0031 39.6667 42H4.66667ZM9.33333 35C8.67222 35 8.11844 34.776 7.672 34.328C7.22556 33.88 7.00156 33.3262 7 32.6667V16.3333C7 15.6722 7.224 15.1185 7.672 14.672C8.12 14.2256 8.67378 14.0016 9.33333 14H14C14.6611 14 15.2157 14.224 15.6637 14.672C16.1117 15.12 16.3349 15.6738 16.3333 16.3333V32.6667C16.3333 33.3278 16.1093 33.8823 15.6613 34.3303C15.2133 34.7783 14.6596 35.0016 14 35H9.33333ZM21 35C20.3389 35 19.7851 34.776 19.3387 34.328C18.8922 33.88 18.6682 33.3262 18.6667 32.6667V4.66667C18.6667 4.00556 18.8907 3.45179 19.3387 3.00534C19.7867 2.5589 20.3404 2.3349 21 2.33334H25.6667C26.3278 2.33334 26.8823 2.55734 27.3303 3.00534C27.7783 3.45334 28.0016 4.00712 28 4.66667V32.6667C28 33.3278 27.776 33.8823 27.328 34.3303C26.88 34.7783 26.3262 35.0016 25.6667 35H21ZM32.6667 35C32.0056 35 31.4518 34.776 31.0053 34.328C30.5589 33.88 30.3349 33.3262 30.3333 32.6667V25.6667C30.3333 25.0056 30.5573 24.4518 31.0053 24.0053C31.4533 23.5589 32.0071 23.3349 32.6667 23.3333H37.3333C37.9944 23.3333 38.549 23.5573 38.997 24.0053C39.445 24.4533 39.6682 25.0071 39.6667 25.6667V32.6667C39.6667 33.3278 39.4427 33.8823 38.9947 34.3303C38.5467 34.7783 37.9929 35.0016 37.3333 35H32.6667Z" fill="#1C768F"/>
<path d="M4.66667 42C3.38333 42 2.28511 41.5435 1.372 40.6303C0.458889 39.7172 0.00155556 38.6182 0 37.3333V2.33334C0 1.67223 0.224 1.11845 0.672 0.672008C1.12 0.225564 1.67378 0.0015636 2.33333 8.04597e-06C2.99289 -0.00154751 3.54744 0.222453 3.997 0.672008C4.44656 1.12156 4.66978 1.67534 4.66667 2.33334V37.3333H39.6667C40.3278 37.3333 40.8823 37.5573 41.3303 38.0053C41.7783 38.4533 42.0016 39.0071 42 39.6667C41.9984 40.3262 41.7744 40.8808 41.328 41.3303C40.8816 41.7799 40.3278 42.0031 39.6667 42H4.66667ZM9.33333 35C8.67222 35 8.11844 34.776 7.672 34.328C7.22556 33.88 7.00156 33.3262 7 32.6667V16.3333C7 15.6722 7.224 15.1185 7.672 14.672C8.12 14.2256 8.67378 14.0016 9.33333 14H14C14.6611 14 15.2157 14.224 15.6637 14.672C16.1117 15.12 16.3349 15.6738 16.3333 16.3333V32.6667C16.3333 33.3278 16.1093 33.8823 15.6613 34.3303C15.2133 34.7783 14.6596 35.0016 14 35H9.33333ZM21 35C20.3389 35 19.7851 34.776 19.3387 34.328C18.8922 33.88 18.6682 33.3262 18.6667 32.6667V4.66667C18.6667 4.00556 18.8907 3.45179 19.3387 3.00534C19.7867 2.5589 20.3404 2.3349 21 2.33334H25.6667C26.3278 2.33334 26.8823 2.55734 27.3303 3.00534C27.7783 3.45334 28.0016 4.00712 28 4.66667V32.6667C28 33.3278 27.776 33.8823 27.328 34.3303C26.88 34.7783 26.3262 35.0016 25.6667 35H21ZM32.6667 35C32.0056 35 31.4518 34.776 31.0053 34.328C30.5589 33.88 30.3349 33.3262 30.3333 32.6667V25.6667C30.3333 25.0056 30.5573 24.4518 31.0053 24.0053C31.4533 23.5589 32.0071 23.3349 32.6667 23.3333H37.3333C37.9944 23.3333 38.549 23.5573 38.997 24.0053C39.445 24.4533 39.6682 25.0071 39.6667 25.6667V32.6667C39.6667 33.3278 39.4427 33.8823 38.9947 34.3303C38.5467 34.7783 37.9929 35.0016 37.3333 35H32.6667Z" fill="black" fill-opacity="0.2"/>
</svg>
