<svg width="42" height="42" viewBox="0 0 42 42" fill="none" xmlns="http://www.w3.org/2000/svg">
<path fill-rule="evenodd" clip-rule="evenodd" d="M37.3333 18.6667C38.5106 18.6663 39.6446 19.1109 40.5079 19.9115C41.3712 20.712 41.9 21.8093 41.9883 22.9833L41.9999 23.3333V37.3333C42.0003 38.5107 41.5556 39.6447 40.7551 40.5079C39.9545 41.3712 38.8573 41.9 37.6833 41.9883L37.3333 42H27.9999C26.8226 42.0004 25.6886 41.5557 24.8253 40.7552C23.962 39.9546 23.4332 38.8574 23.3449 37.6833L23.3333 37.3333V23.3333C23.3329 22.156 23.7775 21.022 24.5781 20.1587C25.3786 19.2954 26.4759 18.7666 27.6499 18.6783L27.9999 18.6667H37.3333ZM37.3333 0C38.5709 0 39.7579 0.491665 40.6331 1.36683C41.5083 2.242 41.9999 3.42899 41.9999 4.66667V9.33333C41.9999 10.571 41.5083 11.758 40.6331 12.6332C39.7579 13.5083 38.5709 14 37.3333 14H27.9999C26.7622 14 25.5753 13.5083 24.7001 12.6332C23.8249 11.758 23.3333 10.571 23.3333 9.33333V4.66667C23.3333 3.42899 23.8249 2.242 24.7001 1.36683C25.5753 0.491665 26.7622 0 27.9999 0H37.3333Z" fill="#1C768F"/>
<path fill-rule="evenodd" clip-rule="evenodd" d="M37.3333 18.6667C38.5106 18.6663 39.6446 19.1109 40.5079 19.9115C41.3712 20.712 41.9 21.8093 41.9883 22.9833L41.9999 23.3333V37.3333C42.0003 38.5107 41.5556 39.6447 40.7551 40.5079C39.9545 41.3712 38.8573 41.9 37.6833 41.9883L37.3333 42H27.9999C26.8226 42.0004 25.6886 41.5557 24.8253 40.7552C23.962 39.9546 23.4332 38.8574 23.3449 37.6833L23.3333 37.3333V23.3333C23.3329 22.156 23.7775 21.022 24.5781 20.1587C25.3786 19.2954 26.4759 18.7666 27.6499 18.6783L27.9999 18.6667H37.3333ZM37.3333 0C38.5709 0 39.7579 0.491665 40.6331 1.36683C41.5083 2.242 41.9999 3.42899 41.9999 4.66667V9.33333C41.9999 10.571 41.5083 11.758 40.6331 12.6332C39.7579 13.5083 38.5709 14 37.3333 14H27.9999C26.7622 14 25.5753 13.5083 24.7001 12.6332C23.8249 11.758 23.3333 10.571 23.3333 9.33333V4.66667C23.3333 3.42899 23.8249 2.242 24.7001 1.36683C25.5753 0.491665 26.7622 0 27.9999 0H37.3333Z" fill="black" fill-opacity="0.2"/>
<path fill-rule="evenodd" clip-rule="evenodd" d="M14 0C15.2377 0 16.4247 0.491665 17.2998 1.36683C18.175 2.242 18.6667 3.42899 18.6667 4.66667V18.6667C18.6667 19.9043 18.175 21.0913 17.2998 21.9665C16.4247 22.8417 15.2377 23.3333 14 23.3333H4.66667C3.42899 23.3333 2.242 22.8417 1.36683 21.9665C0.491665 21.0913 0 19.9043 0 18.6667V4.66667C0 3.42899 0.491665 2.242 1.36683 1.36683C2.242 0.491665 3.42899 0 4.66667 0H14Z" fill="#032539"/>
<path fill-rule="evenodd" clip-rule="evenodd" d="M14 28C15.2377 28 16.4247 28.4917 17.2998 29.3668C18.175 30.242 18.6667 31.429 18.6667 32.6667V37.3333C18.6667 38.571 18.175 39.758 17.2998 40.6332C16.4247 41.5083 15.2377 42 14 42H4.66667C3.42899 42 2.242 41.5083 1.36683 40.6332C0.491665 39.758 0 38.571 0 37.3333V32.6667C0 31.429 0.491665 30.242 1.36683 29.3668C2.242 28.4917 3.42899 28 4.66667 28H14Z" fill="#1C768F"/>
<path fill-rule="evenodd" clip-rule="evenodd" d="M14 28C15.2377 28 16.4247 28.4917 17.2998 29.3668C18.175 30.242 18.6667 31.429 18.6667 32.6667V37.3333C18.6667 38.571 18.175 39.758 17.2998 40.6332C16.4247 41.5083 15.2377 42 14 42H4.66667C3.42899 42 2.242 41.5083 1.36683 40.6332C0.491665 39.758 0 38.571 0 37.3333V32.6667C0 31.429 0.491665 30.242 1.36683 29.3668C2.242 28.4917 3.42899 28 4.66667 28H14Z" fill="black" fill-opacity="0.2"/>
</svg>
