<svg xmlns="http://www.w3.org/2000/svg" xmlns:xlink="http://www.w3.org/1999/xlink" width="1920" zoomAndPan="magnify" viewBox="0 0 1440 374.999991" height="500" preserveAspectRatio="xMidYMid meet" version="1.0"><defs><g/><clipPath id="ee481601bc"><path d="M 106.089844 32.964844 L 510.339844 32.964844 L 510.339844 347.964844 L 106.089844 347.964844 Z M 106.089844 32.964844 " clip-rule="nonzero"/></clipPath></defs><g clip-path="url(#ee481601bc)"><path fill="#5a35a2" d="M 326.210938 32.304688 C 373.632812 32.304688 416.082031 53.820312 444.25 87.542969 C 468.023438 81.535156 492.125 76.949219 516.609375 73.78125 C 508.792969 75.527344 501.039062 77.464844 493.351562 79.46875 L 492.964844 79.597656 L 490.832031 80.179688 L 490.445312 80.308594 L 490.1875 80.371094 L 487.667969 81.019531 L 487.535156 81.019531 L 487.34375 81.082031 L 484.953125 81.730469 L 484.628906 81.792969 L 484.371094 81.859375 L 482.238281 82.441406 L 481.140625 82.761719 L 479.527344 83.214844 L 478.296875 83.539062 L 477.976562 83.601562 L 476.941406 83.925781 L 476.875 83.925781 L 475.003906 84.441406 L 474.808594 84.507812 L 473.777344 84.832031 L 471.964844 85.347656 L 471.257812 85.542969 C 450.324219 91.742188 429.648438 98.980469 409.425781 107.121094 L 409.167969 107.25 C 408.328125 107.574219 407.421875 107.960938 406.582031 108.285156 L 406.066406 108.476562 C 402.964844 109.769531 399.863281 111.0625 396.761719 112.355469 L 395.859375 112.742188 L 393.660156 113.644531 L 392.691406 114.097656 L 390.625 115.003906 L 389.65625 115.390625 L 387.523438 116.296875 L 386.554688 116.746094 L 384.230469 117.78125 L 383.582031 118.039062 L 383.519531 118.105469 C 382.550781 118.554688 381.578125 119.007812 380.609375 119.460938 L 379.769531 119.847656 L 377.574219 120.882812 L 376.667969 121.335938 L 374.667969 122.238281 L 373.4375 122.820312 L 371.4375 123.726562 L 370.597656 124.113281 C 369.757812 124.5 368.851562 124.953125 368.011719 125.339844 L 367.625 125.535156 C 366.65625 125.984375 365.6875 126.503906 364.71875 126.957031 L 364.589844 127.019531 L 364.199219 127.214844 C 363.359375 127.601562 362.519531 128.054688 361.679688 128.441406 L 360.648438 128.957031 L 358.773438 129.863281 L 357.546875 130.507812 L 354.703125 131.929688 L 352.636719 132.964844 L 351.859375 133.351562 C 351.019531 133.804688 350.179688 134.191406 349.339844 134.644531 L 348.886719 134.902344 C 347.917969 135.417969 346.949219 135.9375 345.980469 136.386719 L 345.078125 136.839844 L 343.074219 137.875 L 341.910156 138.519531 L 340.296875 139.359375 L 338.875 140.136719 L 337.386719 140.910156 L 336.03125 141.621094 L 334.351562 142.527344 L 333.253906 143.105469 C 332.414062 143.558594 331.636719 144.011719 330.796875 144.464844 L 330.410156 144.722656 C 329.441406 145.238281 328.472656 145.820312 327.503906 146.335938 L 326.984375 146.660156 C 326.210938 147.113281 325.433594 147.566406 324.660156 147.953125 L 323.691406 148.535156 L 321.816406 149.632812 L 320.785156 150.214844 L 318.84375 151.3125 L 317.875 151.894531 L 317.230469 152.28125 C 311.933594 155.382812 306.699219 158.546875 301.464844 161.714844 C 290.09375 168.757812 278.917969 176.121094 267.933594 183.808594 C 250.488281 196.667969 234.144531 210.882812 219.089844 226.386719 C 235.4375 269.675781 277.300781 300.429688 326.277344 300.429688 C 389.589844 300.429688 440.890625 249.128906 440.890625 185.8125 C 440.890625 180.773438 440.566406 175.800781 439.921875 170.890625 C 412.011719 158.808594 371.046875 170.890625 317.101562 207.261719 C 348.113281 174.636719 385.84375 149.050781 427.644531 132.316406 C 440.566406 127.796875 454.132812 125.535156 467.703125 125.46875 C 475.585938 144.011719 479.976562 164.363281 479.976562 185.75 C 479.976562 270.644531 411.171875 339.449219 326.277344 339.449219 C 267.742188 339.449219 216.894531 306.757812 190.984375 258.625 C 136.390625 329.113281 170.632812 340.226562 249.519531 337.902344 C 206.039062 347.722656 170.765625 352.113281 143.628906 351.144531 C 115.265625 345.847656 106.089844 331.828125 115.976562 309.019531 C 125.152344 287.699219 144.984375 261.792969 175.609375 231.234375 C 185.558594 221.476562 196.089844 212.238281 206.945312 203.582031 C 264.640625 156.933594 330.539062 121.59375 401.21875 99.367188 C 381.128906 81.921875 354.898438 71.390625 326.210938 71.390625 C 267.480469 71.390625 219.089844 115.519531 212.4375 172.4375 C 198.996094 181.808594 186.011719 191.691406 173.347656 202.160156 C 171.410156 203.710938 169.535156 205.324219 167.664062 206.941406 L 167.597656 207.003906 L 166.628906 207.84375 C 157.453125 215.726562 148.472656 223.867188 139.75 232.265625 L 138.78125 233.234375 C 127.671875 244.023438 117.011719 255.203125 106.738281 266.832031 C 116.363281 248.546875 145.761719 207.132812 165.855469 186.265625 C 168.050781 183.679688 170.3125 181.160156 172.636719 178.769531 C 176.578125 97.234375 243.769531 32.304688 326.210938 32.304688 Z M 326.210938 32.304688 " fill-opacity="1" fill-rule="evenodd"/></g><g fill="#8c52ff" fill-opacity="1"><g transform="translate(487.505577, 300.649849)"><g><path d="M 87.515625 3.125 C 73.972656 2.914062 62.976562 1.457031 54.53125 -1.25 C 46.09375 -3.957031 39.425781 -7.757812 34.53125 -12.65625 C 29.632812 -17.550781 26.300781 -23.488281 24.53125 -30.46875 C 22.757812 -37.445312 21.875 -45.316406 21.875 -54.078125 L 21.875 -235.03125 L 68.453125 -242.53125 L 68.453125 -63.453125 C 68.453125 -59.285156 68.765625 -55.53125 69.390625 -52.1875 C 70.015625 -48.851562 71.210938 -46.039062 72.984375 -43.75 C 74.753906 -41.457031 77.304688 -39.582031 80.640625 -38.125 C 83.972656 -36.664062 88.453125 -35.726562 94.078125 -35.3125 Z M 87.515625 3.125 "/></g></g></g><g fill="#8c52ff" fill-opacity="1"><g transform="translate(586.25503, 300.649849)"><g><path d="M 162.21875 -5.625 C 154.289062 -3.332031 144.078125 -1.195312 131.578125 0.78125 C 119.078125 2.757812 105.953125 3.75 92.203125 3.75 C 78.242188 3.75 66.625 1.875 57.34375 -1.875 C 48.070312 -5.625 40.726562 -10.882812 35.3125 -17.65625 C 29.894531 -24.425781 26.039062 -32.5 23.75 -41.875 C 21.457031 -51.257812 20.3125 -61.578125 20.3125 -72.828125 L 20.3125 -164.40625 L 66.890625 -164.40625 L 66.890625 -78.453125 C 66.890625 -63.453125 68.867188 -52.613281 72.828125 -45.9375 C 76.785156 -39.269531 84.179688 -35.9375 95.015625 -35.9375 C 98.347656 -35.9375 101.890625 -36.09375 105.640625 -36.40625 C 109.390625 -36.71875 112.722656 -37.082031 115.640625 -37.5 L 115.640625 -164.40625 L 162.21875 -164.40625 Z M 162.21875 -5.625 "/></g></g></g><g fill="#8c52ff" fill-opacity="1"><g transform="translate(770.316548, 300.649849)"><g><path d="M 112.203125 -87.203125 C 112.203125 -102.203125 110.273438 -112.828125 106.421875 -119.078125 C 102.566406 -125.328125 95.953125 -128.453125 86.578125 -128.453125 C 83.660156 -128.453125 80.640625 -128.296875 77.515625 -127.984375 C 74.390625 -127.671875 71.367188 -127.304688 68.453125 -126.890625 L 68.453125 0 L 21.875 0 L 21.875 -158.78125 C 25.832031 -159.820312 30.46875 -160.914062 35.78125 -162.0625 C 41.09375 -163.207031 46.71875 -164.25 52.65625 -165.1875 C 58.601562 -166.125 64.703125 -166.851562 70.953125 -167.375 C 77.203125 -167.894531 83.347656 -168.15625 89.390625 -168.15625 C 101.265625 -168.15625 110.898438 -166.644531 118.296875 -163.625 C 125.691406 -160.601562 131.785156 -157.003906 136.578125 -152.828125 C 143.242188 -157.628906 150.898438 -161.382812 159.546875 -164.09375 C 168.203125 -166.800781 176.175781 -168.15625 183.46875 -168.15625 C 196.59375 -168.15625 207.375 -166.332031 215.8125 -162.6875 C 224.25 -159.039062 230.96875 -153.878906 235.96875 -147.203125 C 240.96875 -140.535156 244.40625 -132.617188 246.28125 -123.453125 C 248.15625 -114.285156 249.09375 -104.078125 249.09375 -92.828125 L 249.09375 0 L 202.53125 0 L 202.53125 -87.203125 C 202.53125 -102.203125 200.601562 -112.828125 196.75 -119.078125 C 192.894531 -125.328125 186.28125 -128.453125 176.90625 -128.453125 C 174.40625 -128.453125 170.914062 -127.828125 166.4375 -126.578125 C 161.957031 -125.328125 158.253906 -123.765625 155.328125 -121.890625 C 156.796875 -117.097656 157.738281 -112.046875 158.15625 -106.734375 C 158.570312 -101.421875 158.78125 -95.742188 158.78125 -89.703125 L 158.78125 0 L 112.203125 0 Z M 112.203125 -87.203125 "/></g></g></g><g fill="#8c52ff" fill-opacity="1"><g transform="translate(1039.690127, 300.649849)"><g><path d="M 68.453125 0 L 21.875 0 L 21.875 -164.40625 L 68.453125 -164.40625 Z M 72.828125 -211.90625 C 72.828125 -203.363281 70.066406 -196.644531 64.546875 -191.75 C 59.023438 -186.851562 52.507812 -184.40625 45 -184.40625 C 37.5 -184.40625 30.988281 -186.851562 25.46875 -191.75 C 19.945312 -196.644531 17.1875 -203.363281 17.1875 -211.90625 C 17.1875 -220.445312 19.945312 -227.164062 25.46875 -232.0625 C 30.988281 -236.957031 37.5 -239.40625 45 -239.40625 C 52.507812 -239.40625 59.023438 -236.957031 64.546875 -232.0625 C 70.066406 -227.164062 72.828125 -220.445312 72.828125 -211.90625 Z M 72.828125 -211.90625 "/></g></g></g><g fill="#8c52ff" fill-opacity="1"><g transform="translate(1130.002145, 300.649849)"><g><path d="M 21.875 -158.78125 C 29.789062 -161.070312 40 -163.207031 52.5 -165.1875 C 65.007812 -167.164062 78.140625 -168.15625 91.890625 -168.15625 C 105.847656 -168.15625 117.460938 -166.332031 126.734375 -162.6875 C 136.003906 -159.039062 143.347656 -153.878906 148.765625 -147.203125 C 154.191406 -140.535156 158.050781 -132.617188 160.34375 -123.453125 C 162.632812 -114.285156 163.78125 -104.078125 163.78125 -92.828125 L 163.78125 0 L 117.203125 0 L 117.203125 -87.203125 C 117.203125 -102.203125 115.222656 -112.828125 111.265625 -119.078125 C 107.304688 -125.328125 99.910156 -128.453125 89.078125 -128.453125 C 85.742188 -128.453125 82.203125 -128.296875 78.453125 -127.984375 C 74.703125 -127.671875 71.367188 -127.304688 68.453125 -126.890625 L 68.453125 0 L 21.875 0 Z M 21.875 -158.78125 "/></g></g></g></svg>