<svg xmlns="http://www.w3.org/2000/svg" xmlns:xlink="http://www.w3.org/1999/xlink" width="500" zoomAndPan="magnify" viewBox="0 0 375 374.999991" height="500" preserveAspectRatio="xMidYMid meet" version="1.0"><path fill="#8c52ff" d="M 187.5 0 C 179.539062 0 173.078125 6.460938 173.078125 14.421875 L 173.078125 16.902344 C 173.078125 23.796875 168.222656 29.945312 161.414062 31.042969 C 158.113281 31.578125 154.84375 32.195312 151.613281 32.929688 C 144.917969 34.460938 138.152344 30.671875 135.527344 24.339844 L 134.570312 22.085938 C 131.523438 14.730469 123.09375 11.222656 115.722656 14.28125 C 108.367188 17.324219 104.863281 25.757812 107.917969 33.128906 L 108.878906 35.4375 C 111.53125 41.785156 109.410156 49.296875 103.554688 52.929688 C 100.726562 54.691406 97.96875 56.535156 95.269531 58.453125 C 89.675781 62.449219 81.933594 61.539062 77.074219 56.679688 L 75.328125 54.929688 C 69.6875 49.292969 60.558594 49.292969 54.933594 54.929688 C 49.308594 60.570312 49.308594 69.703125 54.933594 75.328125 L 56.679688 77.074219 C 61.539062 81.933594 62.449219 89.660156 58.453125 95.269531 C 56.535156 97.96875 54.691406 100.726562 52.929688 103.554688 C 49.296875 109.410156 41.769531 111.542969 35.410156 108.90625 L 33.128906 107.949219 C 25.773438 104.90625 17.3125 108.394531 14.253906 115.75 C 11.210938 123.105469 14.703125 131.539062 22.058594 134.597656 L 24.3125 135.527344 C 30.640625 138.152344 34.460938 144.917969 32.929688 151.609375 C 32.195312 154.84375 31.550781 158.113281 31.015625 161.414062 C 29.933594 168.207031 23.796875 173.078125 16.902344 173.078125 L 14.421875 173.078125 C 6.460938 173.078125 0 179.539062 0 187.5 C 0 195.460938 6.460938 201.921875 14.421875 201.921875 L 16.902344 201.921875 C 23.796875 201.921875 29.949219 206.777344 31.042969 213.585938 C 31.578125 216.886719 32.195312 220.15625 32.929688 223.386719 C 34.460938 230.082031 30.671875 236.847656 24.339844 239.472656 L 22.085938 240.429688 C 14.730469 243.476562 11.222656 251.90625 14.28125 259.277344 C 17.324219 266.632812 25.757812 270.136719 33.128906 267.082031 L 35.4375 266.121094 C 41.796875 263.484375 49.3125 265.605469 52.960938 271.445312 C 54.71875 274.273438 56.546875 277.046875 58.480469 279.757812 C 62.476562 285.351562 61.566406 293.09375 56.707031 297.953125 L 54.933594 299.703125 C 49.292969 305.339844 49.292969 314.472656 54.933594 320.097656 C 60.570312 325.722656 69.703125 325.734375 75.328125 320.097656 L 77.101562 318.351562 C 81.960938 313.488281 89.675781 312.550781 95.269531 316.546875 C 97.984375 318.480469 100.753906 320.335938 103.582031 322.097656 C 109.421875 325.730469 111.574219 333.257812 108.933594 339.617188 L 107.976562 341.898438 C 104.933594 349.257812 108.421875 357.714844 115.777344 360.773438 C 123.136719 363.816406 131.566406 360.328125 134.625 352.972656 L 135.554688 350.71875 C 138.179688 344.386719 144.945312 340.570312 151.640625 342.097656 C 154.871094 342.832031 158.140625 343.480469 161.441406 344.011719 C 168.207031 345.066406 173.078125 351.203125 173.078125 358.097656 L 173.078125 360.578125 C 173.078125 368.539062 179.539062 375 187.5 375 C 195.460938 375 201.921875 368.539062 201.921875 360.578125 L 201.921875 358.097656 C 201.921875 351.203125 206.777344 345.050781 213.585938 343.957031 C 216.886719 343.421875 220.15625 342.804688 223.386719 342.070312 C 230.082031 340.539062 236.847656 344.328125 239.472656 350.660156 L 240.429688 352.914062 C 243.476562 360.269531 251.90625 363.777344 259.277344 360.71875 C 266.632812 357.675781 270.136719 349.242188 267.082031 341.871094 L 266.121094 339.5625 C 263.484375 333.203125 265.605469 325.6875 271.445312 322.039062 C 274.273438 320.28125 277.046875 318.453125 279.757812 316.519531 C 285.351562 312.523438 293.09375 313.433594 297.953125 318.292969 L 299.703125 320.066406 C 305.339844 325.707031 314.472656 325.707031 320.097656 320.066406 C 325.722656 314.429688 325.734375 305.296875 320.097656 299.671875 L 318.351562 297.898438 C 313.488281 293.039062 312.550781 285.324219 316.546875 279.730469 C 318.480469 277.015625 320.335938 274.246094 322.097656 271.417969 C 325.730469 265.578125 333.257812 263.425781 339.617188 266.066406 L 341.898438 267.023438 C 349.257812 270.066406 357.714844 266.578125 360.773438 259.222656 C 363.816406 251.863281 360.328125 243.433594 352.972656 240.375 L 350.71875 239.445312 C 344.386719 236.820312 340.570312 230.054688 342.097656 223.359375 C 342.832031 220.128906 343.480469 216.859375 344.011719 213.558594 C 345.066406 206.792969 351.203125 201.921875 358.097656 201.921875 L 360.578125 201.921875 C 368.539062 201.921875 375 195.460938 375 187.5 C 375 179.539062 368.539062 173.078125 360.578125 173.078125 L 358.097656 173.078125 C 351.203125 173.078125 345.050781 168.222656 343.957031 161.414062 C 343.421875 158.113281 342.804688 154.84375 342.070312 151.609375 C 340.539062 144.917969 344.328125 138.152344 350.660156 135.527344 L 352.914062 134.570312 C 360.269531 131.523438 363.777344 123.09375 360.71875 115.722656 C 357.675781 108.367188 349.242188 104.863281 341.871094 107.917969 L 339.5625 108.878906 C 333.203125 111.515625 325.6875 109.394531 322.039062 103.554688 C 320.28125 100.726562 318.453125 97.953125 316.519531 95.242188 C 312.523438 89.648438 313.433594 81.90625 318.292969 77.046875 L 320.066406 75.296875 C 325.707031 69.660156 325.707031 60.527344 320.066406 54.902344 C 314.429688 49.265625 305.296875 49.265625 299.671875 54.902344 L 297.925781 56.679688 C 293.066406 61.539062 285.324219 62.476562 279.730469 58.480469 C 277.015625 56.546875 274.246094 54.691406 271.417969 52.929688 C 265.578125 49.296875 263.453125 41.769531 266.09375 35.410156 L 267.050781 33.128906 C 270.09375 25.773438 266.605469 17.3125 259.25 14.253906 C 251.894531 11.210938 243.460938 14.703125 240.402344 22.058594 L 239.445312 24.3125 C 236.820312 30.640625 230.054688 34.460938 223.359375 32.929688 C 220.128906 32.195312 216.859375 31.550781 213.558594 31.015625 C 206.777344 29.933594 201.921875 23.796875 201.921875 16.902344 L 201.921875 14.421875 C 201.921875 6.460938 195.460938 0 187.5 0 Z M 187.5 72.117188 C 246.328125 72.117188 294.789062 116.175781 301.898438 173.078125 L 212.429688 173.078125 C 211.800781 171.988281 211.105469 170.941406 210.339844 169.945312 C 209.574219 168.945312 208.746094 168 207.855469 167.113281 C 206.964844 166.222656 206.023438 165.394531 205.023438 164.625 C 204.027344 163.859375 202.984375 163.160156 201.894531 162.53125 C 200.804688 161.902344 199.679688 161.34375 198.515625 160.863281 C 197.355469 160.378906 196.167969 159.972656 194.953125 159.648438 C 193.738281 159.320312 192.503906 159.074219 191.257812 158.90625 C 190.011719 158.742188 188.757812 158.65625 187.5 158.652344 C 187.492188 158.652344 187.480469 158.652344 187.472656 158.652344 L 142.738281 81.128906 C 156.503906 75.328125 171.625 72.117188 187.5 72.117188 Z M 117.835938 95.664062 L 162.542969 173.078125 C 161.269531 175.269531 160.308594 177.585938 159.648438 180.03125 C 158.988281 182.476562 158.65625 184.96875 158.652344 187.5 C 158.664062 190.023438 158.996094 192.503906 159.65625 194.9375 C 160.3125 197.375 161.277344 199.683594 162.542969 201.867188 L 117.808594 279.304688 C 90.09375 258.230469 72.117188 225 72.117188 187.5 C 72.117188 149.984375 90.101562 116.738281 117.835938 95.664062 Z M 212.457031 201.921875 L 301.898438 201.921875 C 294.789062 258.824219 246.328125 302.882812 187.5 302.882812 C 171.625 302.882812 156.503906 299.671875 142.738281 293.871094 L 187.472656 216.347656 C 187.480469 216.347656 187.492188 216.347656 187.5 216.347656 C 188.757812 216.34375 190.011719 216.261719 191.261719 216.097656 C 192.511719 215.929688 193.742188 215.6875 194.960938 215.359375 C 196.175781 215.03125 197.367188 214.628906 198.53125 214.144531 C 199.691406 213.664062 200.820312 213.105469 201.910156 212.476562 C 203 211.84375 204.046875 211.148438 205.042969 210.378906 C 206.042969 209.613281 206.988281 208.785156 207.878906 207.894531 C 208.769531 207.003906 209.597656 206.058594 210.363281 205.058594 C 211.128906 204.058594 211.828125 203.015625 212.457031 201.921875 Z M 212.457031 201.921875 " fill-opacity="1" fill-rule="nonzero"/></svg>