<svg xmlns="http://www.w3.org/2000/svg" xmlns:xlink="http://www.w3.org/1999/xlink" width="500" zoomAndPan="magnify" viewBox="0 0 375 374.999991" height="500" preserveAspectRatio="xMidYMid meet" version="1.0"><defs><clipPath id="df8d5960f5"><path d="M 0 41.472656 L 375 41.472656 L 375 333.222656 L 0 333.222656 Z M 0 41.472656 " clip-rule="nonzero"/></clipPath></defs><g clip-path="url(#df8d5960f5)"><path fill="#5a35a2" d="M 204.292969 40.859375 C 248.304688 40.859375 287.699219 60.828125 313.84375 92.128906 C 335.910156 86.550781 358.273438 82.292969 381 79.355469 C 373.746094 80.976562 366.550781 82.773438 359.414062 84.632812 L 359.054688 84.753906 L 357.074219 85.292969 L 356.714844 85.414062 L 356.476562 85.472656 L 354.136719 86.070312 L 354.015625 86.070312 L 353.835938 86.132812 L 351.617188 86.730469 L 351.320312 86.792969 L 351.078125 86.851562 L 349.101562 87.390625 L 348.082031 87.691406 L 346.582031 88.109375 L 345.441406 88.410156 L 345.140625 88.46875 L 344.183594 88.769531 L 344.125 88.769531 L 342.382812 89.25 L 342.203125 89.308594 L 341.246094 89.609375 L 339.566406 90.089844 L 338.90625 90.269531 C 319.480469 96.027344 300.289062 102.742188 281.523438 110.296875 L 281.28125 110.417969 C 280.503906 110.714844 279.664062 111.074219 278.882812 111.375 L 278.40625 111.554688 C 275.527344 112.753906 272.648438 113.953125 269.769531 115.152344 L 268.929688 115.511719 L 266.890625 116.351562 L 265.992188 116.773438 L 264.074219 117.613281 L 263.175781 117.972656 L 261.195312 118.8125 L 260.296875 119.230469 L 258.136719 120.191406 L 257.539062 120.429688 L 257.476562 120.488281 C 256.578125 120.910156 255.679688 121.328125 254.78125 121.75 L 254 122.109375 L 251.960938 123.070312 L 251.121094 123.488281 L 249.261719 124.328125 L 248.125 124.867188 L 246.265625 125.707031 L 245.484375 126.066406 C 244.707031 126.425781 243.867188 126.847656 243.085938 127.207031 L 242.726562 127.386719 C 241.828125 127.804688 240.929688 128.285156 240.027344 128.703125 L 239.910156 128.765625 L 239.550781 128.945312 C 238.769531 129.304688 237.988281 129.722656 237.210938 130.085938 L 236.25 130.5625 L 234.511719 131.402344 L 233.375 132.003906 L 231.8125 132.78125 L 230.734375 133.320312 L 228.816406 134.28125 L 228.097656 134.640625 C 227.316406 135.0625 226.539062 135.421875 225.757812 135.839844 L 225.339844 136.082031 C 224.4375 136.558594 223.539062 137.039062 222.640625 137.460938 L 221.800781 137.878906 L 219.941406 138.839844 L 218.863281 139.4375 L 217.363281 140.21875 L 216.042969 140.9375 L 214.664062 141.65625 L 213.40625 142.316406 L 211.847656 143.15625 L 210.828125 143.695312 C 210.046875 144.117188 209.328125 144.535156 208.546875 144.953125 L 208.1875 145.195312 C 207.289062 145.675781 206.390625 146.214844 205.492188 146.695312 L 205.011719 146.992188 C 204.292969 147.414062 203.570312 147.832031 202.851562 148.191406 L 201.953125 148.730469 L 200.214844 149.75 L 199.253906 150.292969 L 197.457031 151.3125 L 196.554688 151.851562 L 195.957031 152.210938 C 191.039062 155.089844 186.183594 158.027344 181.324219 160.964844 C 170.773438 167.5 160.398438 174.335938 150.207031 181.472656 C 134.015625 193.402344 118.84375 206.597656 104.875 220.988281 C 120.042969 261.160156 158.898438 289.703125 204.351562 289.703125 C 263.113281 289.703125 310.722656 242.09375 310.722656 183.332031 C 310.722656 178.652344 310.425781 174.035156 309.824219 169.480469 C 283.921875 158.265625 245.90625 169.480469 195.835938 203.238281 C 224.617188 172.957031 259.636719 149.210938 298.433594 133.683594 C 310.425781 129.484375 323.015625 127.386719 335.609375 127.324219 C 342.925781 144.535156 347 163.421875 347 183.269531 C 347 262.0625 283.140625 325.921875 204.351562 325.921875 C 150.027344 325.921875 102.835938 295.578125 78.789062 250.90625 C 28.121094 316.328125 59.902344 326.640625 133.117188 324.480469 C 92.761719 333.597656 60.023438 337.671875 34.839844 336.773438 C 8.515625 331.855469 0 318.84375 9.175781 297.679688 C 17.6875 277.890625 36.097656 253.847656 64.519531 225.484375 C 73.753906 216.429688 83.527344 207.855469 93.601562 199.820312 C 147.148438 156.527344 208.308594 123.726562 273.90625 103.101562 C 255.257812 86.910156 230.914062 77.136719 204.292969 77.136719 C 149.785156 77.136719 104.875 118.089844 98.699219 170.917969 C 86.226562 179.613281 74.171875 188.789062 62.421875 198.5 C 60.621094 199.941406 58.882812 201.4375 57.144531 202.9375 L 57.085938 203 L 56.183594 203.777344 C 47.671875 211.09375 39.335938 218.648438 31.242188 226.445312 L 30.339844 227.34375 C 20.027344 237.355469 10.132812 247.730469 0.601562 258.523438 C 9.535156 241.554688 36.816406 203.117188 55.464844 183.75 C 57.503906 181.351562 59.601562 179.011719 61.761719 176.792969 C 65.417969 101.121094 127.78125 40.859375 204.292969 40.859375 Z M 204.292969 40.859375 " fill-opacity="1" fill-rule="evenodd"/></g></svg>