<svg xmlns="http://www.w3.org/2000/svg" xmlns:xlink="http://www.w3.org/1999/xlink" width="500" zoomAndPan="magnify" viewBox="0 0 375 374.999991" height="500" preserveAspectRatio="xMidYMid meet" version="1.0"><path fill="#8c52ff" d="M 12.242188 192.519531 C 12.242188 192.519531 157.441406 182.582031 158.4375 338.71875 C 2.296875 337.726562 12.242188 192.519531 12.242188 192.519531 Z M 12.242188 192.519531 " fill-opacity="1" fill-rule="nonzero"/><path fill="#8c52ff" d="M 166.929688 347.214844 L 158.386719 347.152344 C 108.019531 346.835938 68.851562 331.984375 41.953125 303 C -0.15625 257.625 3.648438 194.605469 3.828125 191.949219 L 4.332031 184.625 L 11.667969 184.105469 C 11.667969 184.105469 13.734375 183.957031 17.390625 183.957031 C 42.1875 183.957031 165.941406 191.421875 166.882812 338.660156 Z M 20.621094 200.871094 C 21.09375 218.097656 25.375 260.398438 54.429688 291.636719 C 76.496094 315.34375 108.546875 328.25 149.785156 330.066406 C 144.714844 214.320312 53.929688 201.589844 20.621094 200.871094 Z M 20.621094 200.871094 " fill-opacity="1" fill-rule="nonzero"/><path fill="#8c52ff" d="M 185.199219 38.882812 C 185.199219 38.882812 294.902344 134.519531 185.199219 245.632812 C 75.5 134.519531 185.199219 38.882812 185.199219 38.882812 Z M 185.199219 38.882812 " fill-opacity="1" fill-rule="nonzero"/><path fill="#8c52ff" d="M 185.199219 257.632812 L 179.199219 251.554688 C 143.808594 215.714844 126.613281 177.511719 128.089844 138.003906 C 130.40625 76.144531 177.640625 34.269531 179.652344 32.519531 L 185.199219 27.6875 L 190.746094 32.519531 C 192.757812 34.269531 239.992188 76.144531 242.308594 138.003906 C 243.78125 177.511719 226.59375 215.714844 191.199219 251.554688 Z M 185.199219 50.730469 C 173.335938 63.261719 146.480469 96.183594 144.949219 138.785156 C 143.785156 171.15625 157.320312 202.945312 185.199219 233.386719 C 213.078125 202.945312 226.609375 171.15625 225.449219 138.785156 C 223.917969 96.183594 197.070312 63.261719 185.199219 50.730469 Z M 185.199219 50.730469 " fill-opacity="1" fill-rule="nonzero"/><path fill="#8c52ff" d="M 362.238281 192.519531 C 362.238281 192.519531 217.054688 182.582031 216.050781 338.71875 C 372.195312 337.726562 362.238281 192.519531 362.238281 192.519531 Z M 362.238281 192.519531 " fill-opacity="1" fill-rule="nonzero"/><path fill="#8c52ff" d="M 207.554688 347.214844 L 207.609375 338.660156 C 208.554688 191.421875 332.300781 183.957031 357.097656 183.957031 C 360.75 183.957031 362.816406 184.105469 362.816406 184.105469 L 370.132812 184.625 L 370.664062 191.949219 C 370.84375 194.605469 374.644531 257.617188 332.53125 303 C 305.644531 331.984375 266.46875 346.835938 216.09375 347.152344 Z M 353.886719 200.871094 C 320.582031 201.589844 229.777344 214.300781 224.699219 330.0625 C 266.011719 328.25 298.089844 315.300781 320.164062 291.515625 C 349.246094 260.179688 353.449219 218.046875 353.886719 200.871094 Z M 353.886719 200.871094 " fill-opacity="1" fill-rule="nonzero"/></svg>