<svg xmlns="http://www.w3.org/2000/svg" xmlns:xlink="http://www.w3.org/1999/xlink" width="500" zoomAndPan="magnify" viewBox="0 0 375 374.999991" height="500" preserveAspectRatio="xMidYMid meet" version="1.0"><defs><clipPath id="7c869918d4"><path d="M 14.808594 169 L 291.832031 169 L 291.832031 375 L 14.808594 375 Z M 14.808594 169 " clip-rule="nonzero"/></clipPath><clipPath id="f9f278b927"><path d="M 191.007812 135.035156 L 359.742188 135.035156 L 359.742188 303.59375 L 191.007812 303.59375 Z M 191.007812 135.035156 " clip-rule="nonzero"/></clipPath><clipPath id="655a0ee49f"><path d="M 214.390625 158.242188 L 337 158.242188 L 337 281 L 214.390625 281 Z M 214.390625 158.242188 " clip-rule="nonzero"/></clipPath></defs><path fill="#5a35a2" d="M 233.953125 80.085938 C 233.953125 35.941406 198.035156 0.0234375 153.890625 0.0234375 C 109.75 0.0234375 73.828125 35.941406 73.828125 80.085938 C 73.828125 124.109375 109.75 160.027344 153.890625 160.027344 C 198.035156 160.027344 233.953125 124.109375 233.953125 80.085938 Z M 233.953125 80.085938 " fill-opacity="1" fill-rule="nonzero"/><g clip-path="url(#7c869918d4)"><path fill="#5a35a2" d="M 14.808594 308.421875 L 14.808594 332.609375 C 14.808594 355.953125 33.796875 374.9375 57.140625 374.9375 L 250.644531 374.9375 C 273.984375 374.9375 292.972656 355.953125 292.972656 332.609375 L 292.972656 308.421875 C 292.972656 231.746094 230.566406 169.339844 153.890625 169.339844 C 77.214844 169.339844 14.808594 231.746094 14.808594 308.421875 Z M 14.808594 308.421875 " fill-opacity="1" fill-rule="nonzero"/></g><g clip-path="url(#f9f278b927)"><path fill="#ffffff" d="M 360 219.53125 C 360 266.195312 322.171875 304.027344 275.503906 304.027344 C 228.839844 304.027344 191.007812 266.195312 191.007812 219.53125 C 191.007812 172.867188 228.839844 135.035156 275.503906 135.035156 C 322.171875 135.035156 360 172.867188 360 219.53125 Z M 360 219.53125 " fill-opacity="1" fill-rule="nonzero"/></g><g clip-path="url(#655a0ee49f)"><path fill="#8c52ff" d="M 336.808594 219.453125 C 336.808594 221.457031 336.707031 223.457031 336.511719 225.453125 C 336.316406 227.445312 336.023438 229.425781 335.632812 231.394531 C 335.238281 233.359375 334.753906 235.300781 334.171875 237.21875 C 333.589844 239.140625 332.914062 241.023438 332.148438 242.875 C 331.378906 244.726562 330.523438 246.539062 329.578125 248.304688 C 328.632812 250.074219 327.605469 251.792969 326.492188 253.457031 C 325.378906 255.125 324.183594 256.734375 322.914062 258.28125 C 321.640625 259.832031 320.296875 261.316406 318.878906 262.734375 C 317.460938 264.152344 315.980469 265.496094 314.429688 266.765625 C 312.878906 268.039062 311.269531 269.230469 309.605469 270.34375 C 307.9375 271.460938 306.21875 272.488281 304.453125 273.433594 C 302.683594 274.378906 300.875 275.234375 299.023438 276 C 297.171875 276.769531 295.285156 277.445312 293.367188 278.023438 C 291.449219 278.605469 289.507812 279.09375 287.539062 279.484375 C 285.574219 279.875 283.59375 280.167969 281.597656 280.367188 C 279.601562 280.5625 277.601562 280.660156 275.597656 280.660156 C 273.59375 280.660156 271.59375 280.5625 269.597656 280.367188 C 267.605469 280.167969 265.625 279.875 263.65625 279.484375 C 261.691406 279.09375 259.75 278.605469 257.832031 278.023438 C 255.914062 277.445312 254.027344 276.769531 252.175781 276 C 250.324219 275.234375 248.511719 274.378906 246.746094 273.433594 C 244.976562 272.488281 243.261719 271.460938 241.59375 270.34375 C 239.925781 269.230469 238.316406 268.039062 236.769531 266.765625 C 235.21875 265.496094 233.734375 264.152344 232.316406 262.734375 C 230.898438 261.316406 229.554688 259.832031 228.285156 258.28125 C 227.011719 256.734375 225.820312 255.125 224.707031 253.457031 C 223.59375 251.792969 222.5625 250.074219 221.617188 248.304688 C 220.671875 246.539062 219.816406 244.726562 219.050781 242.875 C 218.28125 241.023438 217.609375 239.140625 217.027344 237.21875 C 216.445312 235.300781 215.957031 233.359375 215.566406 231.394531 C 215.175781 229.425781 214.882812 227.445312 214.683594 225.453125 C 214.488281 223.457031 214.390625 221.457031 214.390625 219.453125 C 214.390625 217.449219 214.488281 215.449219 214.683594 213.453125 C 214.882812 211.457031 215.175781 209.476562 215.566406 207.511719 C 215.957031 205.546875 216.445312 203.601562 217.027344 201.683594 C 217.609375 199.765625 218.28125 197.882812 219.050781 196.027344 C 219.816406 194.175781 220.671875 192.367188 221.617188 190.597656 C 222.5625 188.832031 223.59375 187.113281 224.707031 185.445312 C 225.820312 183.78125 227.011719 182.171875 228.285156 180.621094 C 229.554688 179.074219 230.898438 177.589844 232.316406 176.171875 C 233.734375 174.753906 235.21875 173.410156 236.769531 172.136719 C 238.316406 170.867188 239.925781 169.671875 241.59375 168.558594 C 243.261719 167.445312 244.976562 166.417969 246.746094 165.472656 C 248.511719 164.527344 250.324219 163.671875 252.175781 162.902344 C 254.027344 162.136719 255.914062 161.460938 257.832031 160.878906 C 259.75 160.296875 261.691406 159.8125 263.65625 159.421875 C 265.625 159.027344 267.605469 158.734375 269.597656 158.539062 C 271.59375 158.34375 273.59375 158.242188 275.597656 158.242188 C 277.601562 158.242188 279.601562 158.34375 281.597656 158.539062 C 283.59375 158.734375 285.574219 159.027344 287.539062 159.421875 C 289.507812 159.8125 291.449219 160.296875 293.367188 160.878906 C 295.285156 161.460938 297.171875 162.136719 299.023438 162.902344 C 300.875 163.671875 302.683594 164.527344 304.453125 165.472656 C 306.21875 166.417969 307.9375 167.445312 309.605469 168.558594 C 311.269531 169.671875 312.878906 170.867188 314.429688 172.136719 C 315.980469 173.410156 317.460938 174.753906 318.878906 176.171875 C 320.296875 177.589844 321.640625 179.074219 322.914062 180.621094 C 324.183594 182.171875 325.378906 183.78125 326.492188 185.445312 C 327.605469 187.113281 328.632812 188.832031 329.578125 190.597656 C 330.523438 192.367188 331.378906 194.175781 332.148438 196.027344 C 332.914062 197.882812 333.589844 199.765625 334.171875 201.683594 C 334.753906 203.601562 335.238281 205.546875 335.632812 207.511719 C 336.023438 209.476562 336.316406 211.457031 336.511719 213.453125 C 336.707031 215.449219 336.808594 217.449219 336.808594 219.453125 Z M 336.808594 219.453125 " fill-opacity="1" fill-rule="nonzero"/></g><path fill="#ffffff" d="M 318.777344 189.207031 C 315.605469 186.035156 310.429688 186.035156 307.257812 189.207031 L 263.996094 232.46875 L 243.941406 212.410156 C 240.765625 209.238281 235.59375 209.238281 232.417969 212.410156 C 229.246094 215.585938 229.246094 220.757812 232.417969 223.933594 L 257.941406 249.457031 C 258.023438 249.5625 258.128906 249.644531 258.234375 249.75 C 259.835938 251.351562 261.917969 252.152344 263.996094 252.125 C 266.078125 252.125 268.183594 251.324219 269.757812 249.75 C 269.863281 249.644531 269.945312 249.5625 270.050781 249.457031 L 318.777344 200.730469 C 321.953125 197.554688 321.953125 192.382812 318.777344 189.207031 Z M 318.777344 189.207031 " fill-opacity="1" fill-rule="nonzero"/></svg>